<svg xmlns="http://www.w3.org/2000/svg" xmlns:xlink="http://www.w3.org/1999/xlink" width="1996" zoomAndPan="magnify" viewBox="0 0 1497 440.999989" height="588" preserveAspectRatio="xMidYMid meet" version="1.0"><defs><g/><clipPath id="01e940e2da"><rect x="0" width="1062" y="0" height="291"/></clipPath></defs><path fill="#000000" d="M 199.5 407.5625 C 96.085938 407.5625 12.46875 323.945312 12.46875 220.53125 C 12.46875 117.117188 96.085938 33.5 199.5 33.5 C 302.914062 33.5 386.53125 117.117188 386.53125 220.53125 C 386.53125 323.945312 302.914062 407.5625 199.5 407.5625 Z M 199.5 407.5625 " fill-opacity="1" fill-rule="evenodd"/><path stroke-linecap="round" transform="matrix(0.779297, 0, 0, 0.779297, 0.0000186701, 21.031106)" fill="none" stroke-linejoin="round" d="M 155.999997 292.000223 C 206.000003 350.00023 306.000016 350.00023 356.000023 292.000223 " stroke="#ffffff" stroke-width="40" stroke-opacity="1" stroke-miterlimit="4"/><g transform="matrix(1, 0, 0, 1, 435, 75)"><g clip-path="url(#01e940e2da)"><g fill="#000000" fill-opacity="1"><g transform="translate(1.057548, 226.525283)"><g><path d="M 50.597656 0 L 88.246094 0 L 119.664062 -110.789062 L 151.316406 0 L 188.964844 0 L 235.96875 -167.863281 L 201.195312 -167.863281 L 169.0625 -43.40625 L 133.8125 -167.863281 L 105.515625 -167.863281 L 70.503906 -43.40625 L 38.367188 -167.863281 L 3.597656 -167.863281 Z M 50.597656 0 "/></g></g></g><g fill="#000000" fill-opacity="1"><g transform="translate(235.82524, 226.525283)"><g><path d="M 80.8125 -123.257812 C 64.746094 -123.257812 52.277344 -117.265625 45.082031 -106.472656 L 45.082031 -167.863281 L 14.148438 -167.863281 L 14.148438 0 L 45.082031 0 L 45.082031 -64.746094 C 45.082031 -85.609375 56.355469 -94.484375 71.460938 -94.484375 C 85.371094 -94.484375 95.203125 -86.089844 95.203125 -69.78125 L 95.203125 0 L 126.136719 0 L 126.136719 -73.621094 C 126.136719 -105.515625 106.234375 -123.257812 80.8125 -123.257812 Z M 80.8125 -123.257812 "/></g></g></g><g fill="#000000" fill-opacity="1"><g transform="translate(374.191867, 226.525283)"><g><path d="M 105.273438 -119.902344 L 105.273438 -105.753906 C 96.640625 -116.542969 83.691406 -123.257812 66.1875 -123.257812 C 34.292969 -123.257812 7.914062 -95.683594 7.914062 -59.949219 C 7.914062 -24.21875 34.292969 3.355469 66.1875 3.355469 C 83.691406 3.355469 96.640625 -3.355469 105.273438 -14.148438 L 105.273438 0 L 136.207031 0 L 136.207031 -119.902344 Z M 71.941406 -26.136719 C 52.996094 -26.136719 38.847656 -39.808594 38.847656 -59.949219 C 38.847656 -80.09375 52.996094 -93.761719 71.941406 -93.761719 C 91.125 -93.761719 105.273438 -80.09375 105.273438 -59.949219 C 105.273438 -39.808594 91.125 -26.136719 71.941406 -26.136719 Z M 71.941406 -26.136719 "/></g></g></g><g fill="#000000" fill-opacity="1"><g transform="translate(524.30888, 226.525283)"><g><path d="M 82.730469 -90.167969 L 82.730469 -119.902344 L 55.632812 -119.902344 L 55.632812 -153.472656 L 24.699219 -144.121094 L 24.699219 -119.902344 L 3.835938 -119.902344 L 3.835938 -90.167969 L 24.699219 -90.167969 L 24.699219 -40.285156 C 24.699219 -7.914062 39.328125 4.796875 82.730469 0 L 82.730469 -28.058594 C 64.988281 -27.097656 55.632812 -27.335938 55.632812 -40.285156 L 55.632812 -90.167969 Z M 82.730469 -90.167969 "/></g></g></g><g fill="#000000" fill-opacity="1"><g transform="translate(616.633208, 226.525283)"><g><path d="M 126.617188 -167.863281 L 3.117188 -167.863281 L 3.117188 -136.207031 L 48.199219 -136.207031 L 48.199219 0 L 81.292969 0 L 81.292969 -136.207031 L 126.617188 -136.207031 Z M 126.617188 -167.863281 "/></g></g></g><g fill="#000000" fill-opacity="1"><g transform="translate(724.304968, 226.525283)"><g><path d="M 105.273438 -119.902344 L 105.273438 -105.753906 C 96.640625 -116.542969 83.691406 -123.257812 66.1875 -123.257812 C 34.292969 -123.257812 7.914062 -95.683594 7.914062 -59.949219 C 7.914062 -24.21875 34.292969 3.355469 66.1875 3.355469 C 83.691406 3.355469 96.640625 -3.355469 105.273438 -14.148438 L 105.273438 0 L 136.207031 0 L 136.207031 -119.902344 Z M 71.941406 -26.136719 C 52.996094 -26.136719 38.847656 -39.808594 38.847656 -59.949219 C 38.847656 -80.09375 52.996094 -93.761719 71.941406 -93.761719 C 91.125 -93.761719 105.273438 -80.09375 105.273438 -59.949219 C 105.273438 -39.808594 91.125 -26.136719 71.941406 -26.136719 Z M 71.941406 -26.136719 "/></g></g></g><g fill="#000000" fill-opacity="1"><g transform="translate(874.422026, 226.525283)"><g><path d="M 14.148438 0 L 45.082031 0 L 45.082031 -175.058594 L 14.148438 -175.058594 Z M 14.148438 0 "/></g></g></g><g fill="#000000" fill-opacity="1"><g transform="translate(933.653474, 226.525283)"><g><path d="M 124.699219 0 L 75.058594 -60.671875 L 123.257812 -119.902344 L 86.328125 -119.902344 L 45.082031 -67.144531 L 45.082031 -167.863281 L 14.148438 -167.863281 L 14.148438 0 L 45.082031 0 L 45.082031 -54.433594 L 88.726562 0 Z M 124.699219 0 "/></g></g></g></g></g></svg>